<svg width="101.680664" height="90.000031" viewBox="0 0 101.681 90" fill="none" xmlns="http://www.w3.org/2000/svg" xmlns:xlink="http://www.w3.org/1999/xlink">
	<desc>
			Created with Pixso.
	</desc>
	<defs>
		<linearGradient id="paint_linear_57_560_0" x1="81.840752" y1="16.744263" x2="81.840752" y2="72.544342" gradientUnits="userSpaceOnUse">
			<stop stop-color="#08CBE1"/>
			<stop offset="1.000000" stop-color="#046D9B"/>
		</linearGradient>
		<linearGradient id="paint_linear_57_564_0" x1="83.000000" y1="45.000061" x2="19.000000" y2="45.000061" gradientUnits="userSpaceOnUse">
			<stop stop-color="#02A0E5"/>
			<stop offset="1.000000" stop-color="#0AC8F7"/>
		</linearGradient>
		<linearGradient id="paint_linear_57_568_0" x1="19.840752" y1="33.488342" x2="19.840752" y2="89.288506" gradientUnits="userSpaceOnUse">
			<stop stop-color="#0BEBF0"/>
			<stop offset="1.000000" stop-color="#0BEBF7"/>
		</linearGradient>
	</defs>
	<path id="合并" d="M81.8408 16.7443C80.6021 16.7443 62.0007 39.8704 62.0007 54.3589C62.0007 54.4041 62.0012 54.4491 62.002 54.494C62.0012 54.5587 62.0007 54.6234 62.0007 54.6883C62.0007 64.5499 70.8833 72.5443 81.8408 72.5443C92.7981 72.5443 101.681 64.5499 101.681 54.6883C101.681 54.623 101.68 54.5577 101.68 54.4926C101.68 54.4481 101.681 54.4036 101.681 54.3589C101.681 40.149 83.0796 16.7443 81.8408 16.7443Z" clip-rule="evenodd" fill-rule="evenodd" fill="url(#paint_linear_57_560_0)" fill-opacity="1.000000"/>
	<path id="合并" d="M19 60.6688C19 37.3003 49.002 9.15527e-05 51 9.15527e-05C52.998 9.15527e-05 83 37.7497 83 60.6688C83 60.7407 82.9993 60.8124 82.998 60.8839C82.9993 60.9891 83 61.0945 83 61.2C83 77.1058 68.6731 90 51 90C33.3269 90 19 77.1058 19 61.2C19 61.0954 19.0007 60.9909 19.002 60.8866C19.0007 60.8142 19 60.7416 19 60.6688Z" clip-rule="evenodd" fill-rule="evenodd" fill="url(#paint_linear_57_564_0)" fill-opacity="1.000000"/>
	<path id="合并" d="M19.8408 33.4883C18.6021 33.4883 0.000732422 56.6145 0.000732422 71.103C0.000732422 71.1481 0.0012207 71.1932 0.00195312 71.2381C0.0012207 71.3028 0.000732422 71.3676 0.000732422 71.4325C0.000732422 81.2941 8.8833 89.2885 19.8408 89.2885C30.7981 89.2885 39.6807 81.2941 39.6807 71.4325C39.6807 71.3671 39.6804 71.3018 39.6797 71.2367C39.6804 71.1922 39.6807 71.1476 39.6807 71.103C39.6809 56.8931 21.0796 33.4883 19.8408 33.4883Z" clip-rule="evenodd" fill-rule="evenodd" fill="url(#paint_linear_57_568_0)" fill-opacity="1.000000"/>
</svg>
