<?xml version="1.0" standalone="no"?><!DOCTYPE svg PUBLIC "-//W3C//DTD SVG 1.1//EN" "http://www.w3.org/Graphics/SVG/1.1/DTD/svg11.dtd"><svg t="1691498786566" class="icon" viewBox="0 0 1024 1024" version="1.1" xmlns="http://www.w3.org/2000/svg" p-id="1424" xmlns:xlink="http://www.w3.org/1999/xlink" width="200" height="200"><path d="M810.666667 1024 213.333333 1024c-119.466667 0-213.333333-93.866667-213.333333-213.333333L0 213.333333c0-119.466667 93.866667-213.333333 213.333333-213.333333l597.333333 0c119.466667 0 213.333333 93.866667 213.333333 213.333333l0 597.333333C1024 930.133333 930.133333 1024 810.666667 1024zM213.333333 85.333333C140.8 85.333333 85.333333 140.8 85.333333 213.333333l0 597.333333c0 72.533333 55.466667 128 128 128l597.333333 0c72.533333 0 128-55.466667 128-128L938.666667 213.333333c0-72.533333-55.466667-128-128-128L213.333333 85.333333z" p-id="1425"></path><path d="M384 426.666667c-12.8 0-21.333333-4.266667-29.866667-12.8l-128-128c-17.066667-17.066667-17.066667-42.666667 0-59.733333s42.666667-17.066667 59.733333 0l128 128c17.066667 17.066667 17.066667 42.666667 0 59.733333C405.333333 422.4 396.8 426.666667 384 426.666667z" p-id="1426"></path><path d="M256 554.666667c-12.8 0-21.333333-4.266667-29.866667-12.8-17.066667-17.066667-17.066667-42.666667 0-59.733333l128-128c17.066667-17.066667 42.666667-17.066667 59.733333 0s17.066667 42.666667 0 59.733333l-128 128C277.333333 550.4 268.8 554.666667 256 554.666667z" p-id="1427"></path><path d="M640 554.666667l-170.666667 0c-25.6 0-42.666667-17.066667-42.666667-42.666667s17.066667-42.666667 42.666667-42.666667l170.666667 0c25.6 0 42.666667 17.066667 42.666667 42.666667S665.6 554.666667 640 554.666667z" p-id="1428"></path></svg>