<svg width="220.000000" height="88.000000" viewBox="0 0 220 88" fill="none" xmlns="http://www.w3.org/2000/svg" xmlns:xlink="http://www.w3.org/1999/xlink">
	<defs>
		<filter id="filter_60_522_dd" x="0.000000" y="0.000000" width="94.230957" height="88.000000" filterUnits="userSpaceOnUse" color-interpolation-filters="sRGB">
			<feFlood flood-opacity="0" result="BackgroundImageFix"/>
			<feColorMatrix in="SourceAlpha" type="matrix" values="0 0 0 0 0 0 0 0 0 0 0 0 0 0 0 0 0 0 127 0" result="hardAlpha"/>
			<feOffset dx="0" dy="10"/>
			<feGaussianBlur stdDeviation="6.66667"/>
			<feComposite in2="hardAlpha" operator="out" k2="-1" k3="1"/>
			<feColorMatrix type="matrix" values="0 0 0 0 0.55686 0 0 0 0 0.55686 0 0 0 0 0.55686 0 0 0 0.25 0"/>
			<feBlend mode="normal" in2="BackgroundImageFix" result="effect_dropShadow_1"/>
			<feBlend mode="normal" in="SourceGraphic" in2="effect_dropShadow_1" result="shape"/>
		</filter>
		<linearGradient id="paint_linear_60_513_0" x1="63.649700" y1="18.930298" x2="63.649700" y2="48.690346" gradientUnits="userSpaceOnUse">
			<stop stop-color="#08CBE1"/>
			<stop offset="1.000000" stop-color="#046D9B"/>
		</linearGradient>
		<linearGradient id="paint_linear_60_517_0" x1="64.267609" y1="33.999985" x2="30.134277" y2="33.999985" gradientUnits="userSpaceOnUse">
			<stop stop-color="#02A0E5"/>
			<stop offset="1.000000" stop-color="#0AC8F7"/>
		</linearGradient>
		<linearGradient id="paint_linear_60_521_0" x1="30.582806" y1="27.860443" x2="30.582806" y2="57.620522" gradientUnits="userSpaceOnUse">
			<stop stop-color="#0BEBF0"/>
			<stop offset="1.000000" stop-color="#0BEBF7"/>
		</linearGradient>
		<linearGradient id="paint_linear_60_509_0" x1="90.161781" y1="34.000015" x2="220.000000" y2="44.046494" gradientUnits="userSpaceOnUse">
			<stop stop-color="#017DA4"/>
			<stop offset="1.000000" stop-color="#090909"/>
		</linearGradient>
	</defs>
	<g filter="url(#filter_60_522_dd)">
		<path id="合并" d="M53.0684 38.9914C53.0684 31.2642 62.9888 18.9303 63.6499 18.9303C64.3105 18.9303 74.231 31.4128 74.231 38.9914C74.231 39.0152 74.231 39.039 74.2305 39.0626C74.231 39.0974 74.231 39.1323 74.231 39.1671C74.231 44.4267 69.4937 48.6903 63.6499 48.6903C57.8057 48.6903 53.0684 44.4267 53.0684 39.1671C53.0684 39.1325 53.0684 39.098 53.0688 39.0635C53.0684 39.0395 53.0684 39.0155 53.0684 38.9914Z" clip-rule="evenodd" fill-rule="evenodd" fill="url(#paint_linear_60_513_0)" fill-opacity="1.000000"/>
		<path id="合并" d="M47.2012 10C46.1353 10 30.1343 29.8934 30.1343 42.3566C30.1343 42.3955 30.1348 42.4342 30.1353 42.4728C30.1348 42.5285 30.1343 42.5842 30.1343 42.64C30.1343 51.123 37.7754 58 47.2012 58C56.6265 58 64.2676 51.123 64.2676 42.64Q64.2676 42.5556 64.2666 42.4715C64.2671 42.4333 64.2676 42.395 64.2676 42.3566C64.2676 30.1331 48.2666 10 47.2012 10Z" clip-rule="evenodd" fill-rule="evenodd" fill="url(#paint_linear_60_517_0)" fill-opacity="1.000000"/>
		<path id="合并" d="M20.0015 47.9216C20.0015 40.1944 29.9219 27.8604 30.583 27.8604C31.2437 27.8604 41.1641 40.343 41.1641 47.9216C41.1641 47.9454 41.1641 47.9691 41.1636 47.9928C41.1641 48.0276 41.1641 48.0624 41.1641 48.0973C41.1641 53.3568 36.4268 57.6205 30.583 57.6205C24.7388 57.6205 20.0015 53.3568 20.0015 48.0973C20.0015 48.0627 20.0015 48.0281 20.002 47.9936C20.0015 47.9697 20.0015 47.9457 20.0015 47.9216Z" clip-rule="evenodd" fill-rule="evenodd" fill="url(#paint_linear_60_521_0)" fill-opacity="1.000000"/>
	</g>
	<path id="Omnigram" d="M104.893 34.3799Q104.893 35.3687 104.709 36.7383Q104.526 38.1006 103.999 39.5435Q103.479 40.979 102.476 42.2095Q101.472 43.4399 99.8169 44.2236Q98.1689 45 95.708 45Q93.2471 45 91.5991 44.2236Q89.9512 43.4399 88.9624 42.2095Q87.9736 40.979 87.4463 39.5435Q86.9189 38.1006 86.7505 36.7383Q86.5894 35.3687 86.5894 34.3799Q86.5894 33.4204 86.7505 32.0581Q86.9189 30.6885 87.4463 29.2529Q87.9736 27.8101 88.9624 26.5503Q89.9512 25.2905 91.5991 24.5142Q93.2471 23.7305 95.708 23.7305Q98.1689 23.7305 99.8169 24.5142Q101.472 25.2905 102.476 26.5503Q103.479 27.8101 103.999 29.2529Q104.526 30.6885 104.709 32.0581Q104.893 33.4204 104.893 34.3799ZM101.501 34.3799Q101.501 33.479 101.392 32.2778Q101.289 31.0767 100.974 29.8682Q100.659 28.6523 100.029 27.605Q99.3994 26.5503 98.3447 25.9058Q97.2974 25.2612 95.708 25.2612Q94.1479 25.2612 93.1152 25.9058Q92.0825 26.5503 91.4526 27.605Q90.8228 28.6523 90.5078 29.8682Q90.1929 31.0767 90.083 32.2778Q89.9805 33.479 89.9805 34.3799Q89.9805 35.2808 90.083 36.4673Q90.1929 37.6465 90.5078 38.877Q90.8228 40.1074 91.4526 41.1475Q92.0825 42.1802 93.1152 42.8247Q94.1479 43.4692 95.708 43.4692Q97.2974 43.4692 98.3447 42.8247Q99.3994 42.1802 100.029 41.1475Q100.659 40.1074 100.974 38.877Q101.289 37.6465 101.392 36.4673Q101.501 35.2808 101.501 34.3799ZM124.86 35.0391Q124.86 33.2666 124.289 32.6074Q123.717 31.9482 122.67 31.9482Q121.952 31.9482 121.212 32.4756Q120.48 33.0029 119.967 33.8599Q119.462 34.7095 119.462 35.6982L119.462 42.8687Q119.462 44.2236 119.008 44.6118Q118.561 45 117.572 45Q116.847 45 116.605 44.6265Q116.371 44.2529 116.371 43.5864L116.371 35.0391Q116.371 33.2666 115.8 32.6074Q115.229 31.9482 114.181 31.9482Q113.463 31.9482 112.724 32.4023Q111.991 32.8491 111.479 33.6328Q110.973 34.4092 110.973 35.3979L110.973 42.8687Q110.973 44.2236 110.519 44.6118Q110.072 45 109.084 45Q108.358 45 108.117 44.6265Q107.882 44.2529 107.882 43.5864L107.882 31.2305Q107.882 30.5127 108.197 30.2271Q108.512 29.9414 109.171 29.9414Q109.977 29.9414 110.438 30.5713Q110.907 31.2012 110.907 32.5195L110.907 32.7319L110.973 32.7319Q111.72 31.5308 112.738 30.7397Q113.756 29.9414 115.617 29.9414Q118.832 29.9414 119.337 33.0322L119.403 33.0322Q119.909 32.2192 120.524 31.5161Q121.139 30.813 122.011 30.3809Q122.882 29.9414 124.113 29.9414Q126.12 29.9414 127.035 31.0986Q127.951 32.2485 127.951 34.4678L127.951 43.5864Q127.951 44.2529 127.709 44.6265Q127.467 45 126.75 45Q125.761 45 125.307 44.4434Q124.86 43.8867 124.86 42.5391L124.86 35.0391ZM131.752 31.2305Q131.752 30.5127 132.067 30.2271Q132.382 29.9414 133.041 29.9414Q133.847 29.9414 134.323 30.5713Q134.807 31.2012 134.807 32.5195L134.807 32.7319L134.872 32.7319Q135.62 31.5308 136.938 30.7397Q138.264 29.9414 140.117 29.9414Q144.35 29.9414 144.35 34.4678L144.35 43.5864Q144.35 44.2529 144.108 44.6265Q143.867 45 143.149 45Q142.16 45 141.691 44.4434Q141.23 43.8867 141.23 42.5391L141.23 35.0391Q141.23 33.2666 140.475 32.6074Q139.728 31.9482 138.681 31.9482Q137.839 31.9482 136.953 32.4023Q136.074 32.8491 135.473 33.6328Q134.872 34.4092 134.872 35.3979L134.872 42.8687Q134.872 44.2236 134.404 44.6118Q133.942 45 132.954 45Q132.228 45 131.987 44.6265Q131.752 44.2529 131.752 43.5864L131.752 31.2305ZM151.419 42.9565Q151.419 44.3115 150.95 44.6558Q150.489 45 149.5 45Q148.782 45 148.541 44.6265Q148.299 44.2529 148.299 43.5864L148.299 31.3477Q148.299 30.6592 148.541 30.3003Q148.782 29.9414 149.5 29.9414Q151.419 29.9414 151.419 31.9482L151.419 42.9565ZM147.94 26.1328Q147.94 25.3491 148.489 24.8145Q149.046 24.2725 149.8 24.2725Q150.577 24.2725 151.119 24.8145Q151.661 25.3491 151.661 26.1328Q151.661 26.8799 151.119 27.4365Q150.577 27.9932 149.8 27.9932Q149.046 27.9932 148.489 27.4365Q147.94 26.8799 147.94 26.1328ZM160.858 50.3979Q162.272 50.3979 163.319 49.856Q164.366 49.3213 164.952 48.4937Q165.538 47.6733 165.538 46.8018Q165.538 45.7178 164.711 45.1318Q163.89 44.5532 162.587 44.2822Q161.283 44.0112 159.84 43.9233Q157.467 43.7402 155.995 43.1396Q154.53 42.5391 154.53 41.1621Q154.53 40.5322 154.904 40.1147Q155.277 39.6899 155.863 39.4043Q156.449 39.1187 157.079 38.8696Q157.709 38.6133 158.221 38.2471L158.221 38.1592Q157.02 37.6831 156.508 36.6504Q156.002 35.6104 156.002 34.6802Q156.002 32.937 156.866 31.9043Q157.738 30.8716 159.115 30.4102Q160.499 29.9414 162.03 29.9414Q162.777 29.9414 163.905 30.1538Q165.033 30.3589 165.78 30.8716Q166.022 30.7471 166.08 30.3735Q166.139 30 166.212 29.5679Q166.293 29.1284 166.593 28.8135Q166.893 28.4985 167.582 28.4985Q167.999 28.4985 168.314 28.8794Q168.629 29.2529 168.629 29.7583Q168.629 30.3589 168.073 30.8716Q167.523 31.377 166.923 31.7432Q167.399 32.2485 167.714 32.9883Q168.029 33.7207 168.029 34.4971Q168.029 35.8813 167.186 36.8994Q166.351 37.9175 164.996 38.4741Q163.649 39.0308 162.059 39.0308Q161.547 39.0308 160.858 38.9722Q160.17 38.9136 159.657 38.7598Q158.91 39.3311 158.427 39.5874Q157.95 39.8364 157.95 40.437Q157.95 40.6787 158.185 40.9351Q158.427 41.1914 159.144 41.3892Q159.869 41.5796 161.283 41.6382Q165.121 41.8213 166.871 43.0371Q168.629 44.2529 168.629 45.9302Q168.629 47.5195 167.589 48.8086Q166.556 50.0977 164.637 50.8447Q162.719 51.5991 160.053 51.5991Q157.562 51.5991 156.09 50.5444Q154.618 49.4971 154.618 47.9077Q154.618 46.9189 155.131 46.2451Q155.643 45.5713 156.273 45.2124Q156.903 44.8535 157.262 44.8535Q157.592 44.8535 157.767 45.0293Q157.95 45.2124 157.95 45.4468Q157.95 45.6592 157.694 45.9155Q157.438 46.1719 157.196 46.5747Q156.962 46.9775 156.962 47.7026Q156.962 48.9331 158.097 49.6655Q159.24 50.3979 160.858 50.3979ZM164.938 34.4385Q164.938 33.0029 164.191 32.0728Q163.444 31.1426 162.03 31.1426Q160.682 31.1426 159.884 32.0581Q159.093 32.9736 159.093 34.563Q159.093 35.9985 159.855 36.9141Q160.616 37.8296 162.03 37.8296Q163.348 37.8296 164.139 36.8848Q164.938 35.9399 164.938 34.4385ZM181.132 31.2305Q181.132 31.7725 180.875 32.0874Q180.619 32.4023 179.96 32.4023L178.971 32.4023Q177.352 32.4023 176.371 32.959Q175.397 33.5083 174.965 34.3799Q174.532 35.2515 174.532 36.1523L174.532 42.8687Q174.532 44.2236 174.064 44.6118Q173.602 45 172.614 45Q171.888 45 171.647 44.6265Q171.412 44.2529 171.412 43.5864L171.412 31.2305Q171.412 30.5127 171.727 30.2271Q172.042 29.9414 172.701 29.9414Q173.507 29.9414 173.983 30.5713Q174.467 31.2012 174.467 32.5195L174.467 33.2666L174.532 33.2666Q174.891 32.7026 175.507 31.9263Q176.122 31.1426 177.081 30.542Q178.041 29.9414 179.359 29.9414L179.718 29.9414Q180.502 29.9414 180.802 30.2856Q181.102 30.6299 181.132 31.2305ZM190.364 42.1509Q189.367 43.623 188.093 44.3115Q186.819 45 185.083 45Q182.798 45 181.67 43.8794Q180.549 42.7515 180.549 40.9497Q180.549 39.9902 180.879 39.0454Q181.208 38.1006 182.051 37.3535Q182.893 36.5991 184.358 36.1523Q185.83 35.6982 188.108 35.6982L190.298 35.6982L190.298 34.8633Q190.298 32.7905 189.594 31.9702Q188.891 31.1426 187.302 31.1426Q186.372 31.1426 185.727 31.5308Q185.083 31.9189 184.658 32.4023Q184.211 32.8784 183.757 33.1641Q183.31 33.4497 182.827 33.4497Q182.292 33.4497 182.036 33.1348Q181.78 32.8198 181.78 32.4316Q181.78 31.8018 182.256 31.4282Q182.739 31.0474 183.427 30.7471Q184.453 30.3296 185.698 30.1392Q186.943 29.9414 187.903 29.9414Q190.122 29.9414 191.316 30.5566Q192.517 31.1719 192.978 32.373Q193.447 33.5669 193.447 35.3687L193.447 43.5864Q193.447 44.2529 193.22 44.6265Q193 45 192.282 45Q191.286 45 190.869 44.3262Q190.451 43.6523 190.451 42.1802L190.364 42.1509ZM188.591 36.958Q186.672 36.958 185.588 37.4414Q184.511 37.9175 184.087 38.7305Q183.669 39.5435 183.669 40.5322Q183.669 41.9092 184.387 42.4512Q185.112 42.9932 186.277 42.9932Q187.031 42.9932 187.976 42.6196Q188.921 42.2388 189.624 41.4624Q190.327 40.6787 190.327 39.4775L190.327 36.958L188.591 36.958ZM214.02 35.0391Q214.02 33.2666 213.449 32.6074Q212.877 31.9482 211.83 31.9482Q211.112 31.9482 210.372 32.4756Q209.64 33.0029 209.127 33.8599Q208.622 34.7095 208.622 35.6982L208.622 42.8687Q208.622 44.2236 208.168 44.6118Q207.721 45 206.732 45Q206.007 45 205.765 44.6265Q205.531 44.2529 205.531 43.5864L205.531 35.0391Q205.531 33.2666 204.96 32.6074Q204.389 31.9482 203.341 31.9482Q202.623 31.9482 201.884 32.4023Q201.151 32.8491 200.639 33.6328Q200.133 34.4092 200.133 35.3979L200.133 42.8687Q200.133 44.2236 199.679 44.6118Q199.232 45 198.244 45Q197.518 45 197.277 44.6265Q197.042 44.2529 197.042 43.5864L197.042 31.2305Q197.042 30.5127 197.357 30.2271Q197.672 29.9414 198.331 29.9414Q199.137 29.9414 199.598 30.5713Q200.067 31.2012 200.067 32.5195L200.067 32.7319L200.133 32.7319Q200.88 31.5308 201.898 30.7397Q202.916 29.9414 204.777 29.9414Q207.992 29.9414 208.497 33.0322L208.563 33.0322Q209.069 32.2192 209.684 31.5161Q210.299 30.813 211.171 30.3809Q212.042 29.9414 213.273 29.9414Q215.28 29.9414 216.195 31.0986Q217.111 32.2485 217.111 34.4678L217.111 43.5864Q217.111 44.2529 216.869 44.6265Q216.627 45 215.91 45Q214.921 45 214.467 44.4434Q214.02 43.8867 214.02 42.5391L214.02 35.0391Z" fill-rule="evenodd" fill="url(#paint_linear_60_509_0)"/>
</svg>
